<mxfile host="app.diagrams.net" agent="Mozilla/5.0 (Macintosh; Intel Mac OS X 10_15_7) AppleWebKit/537.36 (KHTML, like Gecko) Chrome/140.0.0.0 Safari/537.36" version="28.2.5">
  <diagram name="第 1 页" id="jydDzEKxTK3fhblVbgO5">
    <mxGraphModel dx="1297" dy="1869" grid="1" gridSize="10" guides="1" tooltips="1" connect="1" arrows="1" fold="1" page="1" pageScale="1" pageWidth="1200" pageHeight="1600" math="0" shadow="0">
      <root>
        <mxCell id="0" />
        <mxCell id="1" parent="0" />
        <mxCell id="uLZXbfQ6GJuZrOZhjSxK-10" value="" style="edgeStyle=orthogonalEdgeStyle;rounded=0;orthogonalLoop=1;jettySize=auto;html=1;fontSize=12;movable=1;resizable=1;rotatable=1;deletable=1;editable=1;locked=0;connectable=1;" parent="1" source="uLZXbfQ6GJuZrOZhjSxK-3" target="uLZXbfQ6GJuZrOZhjSxK-9" edge="1">
          <mxGeometry relative="1" as="geometry" />
        </mxCell>
        <mxCell id="uLZXbfQ6GJuZrOZhjSxK-3" value="" style="ellipse;fillColor=strokeColor;html=1;fontSize=12;movable=1;resizable=1;rotatable=1;deletable=1;editable=1;locked=0;connectable=1;direction=west;flipV=0;flipH=1;" parent="1" vertex="1">
          <mxGeometry x="580" y="287" width="30" height="30" as="geometry" />
        </mxCell>
        <mxCell id="uLZXbfQ6GJuZrOZhjSxK-12" value="" style="edgeStyle=orthogonalEdgeStyle;rounded=0;orthogonalLoop=1;jettySize=auto;html=1;fontSize=12;movable=1;resizable=1;rotatable=1;deletable=1;editable=1;locked=0;connectable=1;" parent="1" source="uLZXbfQ6GJuZrOZhjSxK-9" target="uLZXbfQ6GJuZrOZhjSxK-11" edge="1">
          <mxGeometry relative="1" as="geometry" />
        </mxCell>
        <mxCell id="uLZXbfQ6GJuZrOZhjSxK-9" value="访谈" style="rounded=1;whiteSpace=wrap;html=1;fillColor=default;fontSize=12;movable=1;resizable=1;rotatable=1;deletable=1;editable=1;locked=0;connectable=1;direction=west;flipV=0;flipH=1;" parent="1" vertex="1">
          <mxGeometry x="535" y="382" width="120" height="60" as="geometry" />
        </mxCell>
        <mxCell id="uLZXbfQ6GJuZrOZhjSxK-16" style="edgeStyle=orthogonalEdgeStyle;rounded=0;orthogonalLoop=1;jettySize=auto;html=1;exitX=0;exitY=0.5;exitDx=0;exitDy=0;entryX=0;entryY=0.5;entryDx=0;entryDy=0;" parent="1" source="uLZXbfQ6GJuZrOZhjSxK-11" target="uLZXbfQ6GJuZrOZhjSxK-17" edge="1">
          <mxGeometry relative="1" as="geometry">
            <mxPoint x="700" y="529" as="targetPoint" />
          </mxGeometry>
        </mxCell>
        <mxCell id="uLZXbfQ6GJuZrOZhjSxK-19" value="没兴趣" style="edgeLabel;html=1;align=center;verticalAlign=middle;resizable=0;points=[];" parent="uLZXbfQ6GJuZrOZhjSxK-16" vertex="1" connectable="0">
          <mxGeometry x="-0.3714" y="2" relative="1" as="geometry">
            <mxPoint as="offset" />
          </mxGeometry>
        </mxCell>
        <mxCell id="uLZXbfQ6GJuZrOZhjSxK-30" value="" style="edgeStyle=orthogonalEdgeStyle;rounded=0;orthogonalLoop=1;jettySize=auto;html=1;" parent="1" source="uLZXbfQ6GJuZrOZhjSxK-11" target="uLZXbfQ6GJuZrOZhjSxK-29" edge="1">
          <mxGeometry relative="1" as="geometry" />
        </mxCell>
        <mxCell id="uLZXbfQ6GJuZrOZhjSxK-33" value="有兴趣" style="edgeLabel;html=1;align=center;verticalAlign=middle;resizable=0;points=[];" parent="uLZXbfQ6GJuZrOZhjSxK-30" vertex="1" connectable="0">
          <mxGeometry x="-0.2857" relative="1" as="geometry">
            <mxPoint as="offset" />
          </mxGeometry>
        </mxCell>
        <mxCell id="uLZXbfQ6GJuZrOZhjSxK-11" value="" style="rhombus;whiteSpace=wrap;html=1;fillColor=default;rounded=1;fontSize=12;movable=1;resizable=1;rotatable=1;deletable=1;editable=1;locked=0;connectable=1;direction=west;flipV=0;flipH=1;" parent="1" vertex="1">
          <mxGeometry x="555" y="489" width="80" height="80" as="geometry" />
        </mxCell>
        <mxCell id="uLZXbfQ6GJuZrOZhjSxK-17" value="" style="ellipse;html=1;shape=endState;fillColor=strokeColor;" parent="1" vertex="1">
          <mxGeometry x="680" y="514" width="30" height="30" as="geometry" />
        </mxCell>
        <mxCell id="uLZXbfQ6GJuZrOZhjSxK-32" value="" style="edgeStyle=orthogonalEdgeStyle;rounded=0;orthogonalLoop=1;jettySize=auto;html=1;" parent="1" source="uLZXbfQ6GJuZrOZhjSxK-29" target="uLZXbfQ6GJuZrOZhjSxK-31" edge="1">
          <mxGeometry relative="1" as="geometry" />
        </mxCell>
        <mxCell id="uLZXbfQ6GJuZrOZhjSxK-29" value="需求（initial）" style="fontStyle=1;whiteSpace=wrap;html=1;" parent="1" vertex="1">
          <mxGeometry x="525" y="607" width="140" height="30" as="geometry" />
        </mxCell>
        <mxCell id="uLZXbfQ6GJuZrOZhjSxK-35" value="" style="edgeStyle=orthogonalEdgeStyle;rounded=0;orthogonalLoop=1;jettySize=auto;html=1;" parent="1" source="uLZXbfQ6GJuZrOZhjSxK-31" target="uLZXbfQ6GJuZrOZhjSxK-34" edge="1">
          <mxGeometry relative="1" as="geometry" />
        </mxCell>
        <mxCell id="uLZXbfQ6GJuZrOZhjSxK-31" value="提问" style="rounded=1;whiteSpace=wrap;html=1;fontStyle=1;" parent="1" vertex="1">
          <mxGeometry x="535" y="687" width="120" height="60" as="geometry" />
        </mxCell>
        <mxCell id="uLZXbfQ6GJuZrOZhjSxK-37" value="" style="edgeStyle=orthogonalEdgeStyle;rounded=0;orthogonalLoop=1;jettySize=auto;html=1;" parent="1" source="uLZXbfQ6GJuZrOZhjSxK-34" target="uLZXbfQ6GJuZrOZhjSxK-36" edge="1">
          <mxGeometry relative="1" as="geometry" />
        </mxCell>
        <mxCell id="uLZXbfQ6GJuZrOZhjSxK-34" value="算成本" style="rounded=1;whiteSpace=wrap;html=1;fontStyle=1;" parent="1" vertex="1">
          <mxGeometry x="535" y="827" width="120" height="60" as="geometry" />
        </mxCell>
        <mxCell id="uLZXbfQ6GJuZrOZhjSxK-39" value="" style="edgeStyle=orthogonalEdgeStyle;rounded=0;orthogonalLoop=1;jettySize=auto;html=1;" parent="1" source="uLZXbfQ6GJuZrOZhjSxK-36" target="uLZXbfQ6GJuZrOZhjSxK-38" edge="1">
          <mxGeometry relative="1" as="geometry" />
        </mxCell>
        <mxCell id="uLZXbfQ6GJuZrOZhjSxK-36" value="预算（initial）" style="fontStyle=1;whiteSpace=wrap;html=1;" parent="1" vertex="1">
          <mxGeometry x="525" y="917" width="140" height="30" as="geometry" />
        </mxCell>
        <mxCell id="uLZXbfQ6GJuZrOZhjSxK-41" value="" style="edgeStyle=orthogonalEdgeStyle;rounded=0;orthogonalLoop=1;jettySize=auto;html=1;" parent="1" source="uLZXbfQ6GJuZrOZhjSxK-38" target="uLZXbfQ6GJuZrOZhjSxK-40" edge="1">
          <mxGeometry relative="1" as="geometry" />
        </mxCell>
        <mxCell id="uLZXbfQ6GJuZrOZhjSxK-38" value="" style="rhombus;whiteSpace=wrap;html=1;fontStyle=1;" parent="1" vertex="1">
          <mxGeometry x="555" y="1002" width="80" height="80" as="geometry" />
        </mxCell>
        <mxCell id="uLZXbfQ6GJuZrOZhjSxK-43" value="" style="edgeStyle=orthogonalEdgeStyle;rounded=0;orthogonalLoop=1;jettySize=auto;html=1;" parent="1" source="uLZXbfQ6GJuZrOZhjSxK-40" target="uLZXbfQ6GJuZrOZhjSxK-42" edge="1">
          <mxGeometry relative="1" as="geometry" />
        </mxCell>
        <mxCell id="uLZXbfQ6GJuZrOZhjSxK-44" value="金额大于20w" style="edgeLabel;html=1;align=center;verticalAlign=middle;resizable=0;points=[];" parent="uLZXbfQ6GJuZrOZhjSxK-43" vertex="1" connectable="0">
          <mxGeometry x="-0.2889" y="-2" relative="1" as="geometry">
            <mxPoint as="offset" />
          </mxGeometry>
        </mxCell>
        <mxCell id="SOsJHN9KbVqRuwe2kCM1-14" value="" style="edgeStyle=orthogonalEdgeStyle;rounded=0;orthogonalLoop=1;jettySize=auto;html=1;entryX=0;entryY=0.75;entryDx=0;entryDy=0;" edge="1" parent="1" source="uLZXbfQ6GJuZrOZhjSxK-40" target="SOsJHN9KbVqRuwe2kCM1-13">
          <mxGeometry relative="1" as="geometry">
            <Array as="points">
              <mxPoint x="688" y="1202" />
              <mxPoint x="688" y="1200" />
            </Array>
          </mxGeometry>
        </mxCell>
        <mxCell id="SOsJHN9KbVqRuwe2kCM1-15" value="金额小于20w" style="edgeLabel;html=1;align=center;verticalAlign=middle;resizable=0;points=[];" vertex="1" connectable="0" parent="SOsJHN9KbVqRuwe2kCM1-14">
          <mxGeometry x="-0.2202" y="-4" relative="1" as="geometry">
            <mxPoint as="offset" />
          </mxGeometry>
        </mxCell>
        <mxCell id="uLZXbfQ6GJuZrOZhjSxK-40" value="" style="rhombus;whiteSpace=wrap;html=1;fontStyle=1;" parent="1" vertex="1">
          <mxGeometry x="555" y="1162" width="80" height="80" as="geometry" />
        </mxCell>
        <mxCell id="uLZXbfQ6GJuZrOZhjSxK-46" value="" style="edgeStyle=orthogonalEdgeStyle;rounded=0;orthogonalLoop=1;jettySize=auto;html=1;" parent="1" source="uLZXbfQ6GJuZrOZhjSxK-42" target="uLZXbfQ6GJuZrOZhjSxK-45" edge="1">
          <mxGeometry relative="1" as="geometry" />
        </mxCell>
        <mxCell id="uLZXbfQ6GJuZrOZhjSxK-42" value="合同洽谈" style="rounded=1;whiteSpace=wrap;html=1;fontStyle=1;" parent="1" vertex="1">
          <mxGeometry x="535" y="1332" width="120" height="60" as="geometry" />
        </mxCell>
        <mxCell id="uLZXbfQ6GJuZrOZhjSxK-48" value="" style="edgeStyle=orthogonalEdgeStyle;rounded=0;orthogonalLoop=1;jettySize=auto;html=1;" parent="1" source="uLZXbfQ6GJuZrOZhjSxK-45" target="uLZXbfQ6GJuZrOZhjSxK-47" edge="1">
          <mxGeometry relative="1" as="geometry" />
        </mxCell>
        <mxCell id="uLZXbfQ6GJuZrOZhjSxK-45" value="" style="rhombus;whiteSpace=wrap;html=1;rounded=1;fontStyle=1;" parent="1" vertex="1">
          <mxGeometry x="555" y="1462" width="80" height="80" as="geometry" />
        </mxCell>
        <mxCell id="uLZXbfQ6GJuZrOZhjSxK-50" value="" style="edgeStyle=orthogonalEdgeStyle;rounded=0;orthogonalLoop=1;jettySize=auto;html=1;" parent="1" source="uLZXbfQ6GJuZrOZhjSxK-47" target="uLZXbfQ6GJuZrOZhjSxK-49" edge="1">
          <mxGeometry relative="1" as="geometry" />
        </mxCell>
        <mxCell id="uLZXbfQ6GJuZrOZhjSxK-55" value="达成共识" style="edgeLabel;html=1;align=center;verticalAlign=middle;resizable=0;points=[];" parent="uLZXbfQ6GJuZrOZhjSxK-50" vertex="1" connectable="0">
          <mxGeometry x="-0.1524" y="4" relative="1" as="geometry">
            <mxPoint as="offset" />
          </mxGeometry>
        </mxCell>
        <mxCell id="SOsJHN9KbVqRuwe2kCM1-2" value="" style="edgeStyle=orthogonalEdgeStyle;rounded=0;orthogonalLoop=1;jettySize=auto;html=1;" edge="1" parent="1" source="uLZXbfQ6GJuZrOZhjSxK-47" target="SOsJHN9KbVqRuwe2kCM1-1">
          <mxGeometry relative="1" as="geometry" />
        </mxCell>
        <mxCell id="SOsJHN9KbVqRuwe2kCM1-3" value="未达成共识" style="edgeLabel;html=1;align=center;verticalAlign=middle;resizable=0;points=[];" vertex="1" connectable="0" parent="SOsJHN9KbVqRuwe2kCM1-2">
          <mxGeometry x="-0.1162" y="5" relative="1" as="geometry">
            <mxPoint as="offset" />
          </mxGeometry>
        </mxCell>
        <mxCell id="uLZXbfQ6GJuZrOZhjSxK-47" value="" style="rhombus;whiteSpace=wrap;html=1;rounded=1;fontStyle=1;" parent="1" vertex="1">
          <mxGeometry x="555" y="1622" width="80" height="80" as="geometry" />
        </mxCell>
        <mxCell id="uLZXbfQ6GJuZrOZhjSxK-54" value="" style="edgeStyle=orthogonalEdgeStyle;rounded=0;orthogonalLoop=1;jettySize=auto;html=1;" parent="1" source="uLZXbfQ6GJuZrOZhjSxK-49" target="SOsJHN9KbVqRuwe2kCM1-32" edge="1">
          <mxGeometry relative="1" as="geometry">
            <mxPoint x="595" y="1907" as="targetPoint" />
          </mxGeometry>
        </mxCell>
        <mxCell id="uLZXbfQ6GJuZrOZhjSxK-49" value="合同" style="rounded=1;whiteSpace=wrap;html=1;fontStyle=1;" parent="1" vertex="1">
          <mxGeometry x="535" y="1792" width="120" height="60" as="geometry" />
        </mxCell>
        <mxCell id="SOsJHN9KbVqRuwe2kCM1-5" value="" style="edgeStyle=orthogonalEdgeStyle;rounded=0;orthogonalLoop=1;jettySize=auto;html=1;" edge="1" parent="1" source="SOsJHN9KbVqRuwe2kCM1-1" target="SOsJHN9KbVqRuwe2kCM1-4">
          <mxGeometry relative="1" as="geometry" />
        </mxCell>
        <mxCell id="SOsJHN9KbVqRuwe2kCM1-1" value="具体需求（actual）" style="fontStyle=1;whiteSpace=wrap;html=1;" vertex="1" parent="1">
          <mxGeometry x="710" y="1647" width="140" height="30" as="geometry" />
        </mxCell>
        <mxCell id="SOsJHN9KbVqRuwe2kCM1-7" value="" style="edgeStyle=orthogonalEdgeStyle;rounded=0;orthogonalLoop=1;jettySize=auto;html=1;" edge="1" parent="1" source="SOsJHN9KbVqRuwe2kCM1-4" target="SOsJHN9KbVqRuwe2kCM1-6">
          <mxGeometry relative="1" as="geometry" />
        </mxCell>
        <mxCell id="SOsJHN9KbVqRuwe2kCM1-4" value="重新核算成本" style="rounded=1;whiteSpace=wrap;html=1;fontStyle=1;" vertex="1" parent="1">
          <mxGeometry x="940" y="1632" width="120" height="60" as="geometry" />
        </mxCell>
        <mxCell id="SOsJHN9KbVqRuwe2kCM1-8" style="edgeStyle=orthogonalEdgeStyle;rounded=0;orthogonalLoop=1;jettySize=auto;html=1;entryX=1;entryY=0.5;entryDx=0;entryDy=0;exitX=0.5;exitY=0;exitDx=0;exitDy=0;" edge="1" parent="1" source="SOsJHN9KbVqRuwe2kCM1-6" target="uLZXbfQ6GJuZrOZhjSxK-38">
          <mxGeometry relative="1" as="geometry" />
        </mxCell>
        <mxCell id="SOsJHN9KbVqRuwe2kCM1-6" value="预算（actual）" style="fontStyle=1;whiteSpace=wrap;html=1;" vertex="1" parent="1">
          <mxGeometry x="930" y="1542" width="140" height="30" as="geometry" />
        </mxCell>
        <mxCell id="SOsJHN9KbVqRuwe2kCM1-10" style="edgeStyle=orthogonalEdgeStyle;rounded=0;orthogonalLoop=1;jettySize=auto;html=1;entryX=1;entryY=0.5;entryDx=0;entryDy=0;" edge="1" parent="1" source="SOsJHN9KbVqRuwe2kCM1-9" target="SOsJHN9KbVqRuwe2kCM1-4">
          <mxGeometry relative="1" as="geometry">
            <Array as="points">
              <mxPoint x="1120" y="857" />
              <mxPoint x="1120" y="1662" />
            </Array>
          </mxGeometry>
        </mxCell>
        <mxCell id="SOsJHN9KbVqRuwe2kCM1-11" style="edgeStyle=orthogonalEdgeStyle;rounded=0;orthogonalLoop=1;jettySize=auto;html=1;" edge="1" parent="1" source="SOsJHN9KbVqRuwe2kCM1-9" target="uLZXbfQ6GJuZrOZhjSxK-34">
          <mxGeometry relative="1" as="geometry" />
        </mxCell>
        <mxCell id="SOsJHN9KbVqRuwe2kCM1-12" style="edgeStyle=orthogonalEdgeStyle;rounded=0;orthogonalLoop=1;jettySize=auto;html=1;entryX=1;entryY=0.5;entryDx=0;entryDy=0;" edge="1" parent="1" source="SOsJHN9KbVqRuwe2kCM1-9" target="uLZXbfQ6GJuZrOZhjSxK-31">
          <mxGeometry relative="1" as="geometry">
            <Array as="points">
              <mxPoint x="1020" y="717" />
            </Array>
          </mxGeometry>
        </mxCell>
        <mxCell id="SOsJHN9KbVqRuwe2kCM1-9" value="相关部门" style="fontStyle=1;whiteSpace=wrap;html=1;" vertex="1" parent="1">
          <mxGeometry x="940" y="842" width="140" height="30" as="geometry" />
        </mxCell>
        <mxCell id="SOsJHN9KbVqRuwe2kCM1-21" style="edgeStyle=orthogonalEdgeStyle;rounded=0;orthogonalLoop=1;jettySize=auto;html=1;entryX=1;entryY=0.5;entryDx=0;entryDy=0;" edge="1" parent="1" source="SOsJHN9KbVqRuwe2kCM1-13" target="uLZXbfQ6GJuZrOZhjSxK-45">
          <mxGeometry relative="1" as="geometry">
            <Array as="points">
              <mxPoint x="770" y="1502" />
            </Array>
          </mxGeometry>
        </mxCell>
        <mxCell id="SOsJHN9KbVqRuwe2kCM1-13" value="合同洽谈" style="rounded=1;whiteSpace=wrap;html=1;fontStyle=1;" vertex="1" parent="1">
          <mxGeometry x="740" y="1140" width="120" height="80" as="geometry" />
        </mxCell>
        <mxCell id="SOsJHN9KbVqRuwe2kCM1-17" value="" style="edgeStyle=orthogonalEdgeStyle;rounded=0;orthogonalLoop=1;jettySize=auto;html=1;" edge="1" parent="1" source="SOsJHN9KbVqRuwe2kCM1-16" target="SOsJHN9KbVqRuwe2kCM1-13">
          <mxGeometry relative="1" as="geometry">
            <Array as="points">
              <mxPoint x="850" y="1157" />
              <mxPoint x="850" y="1157" />
            </Array>
          </mxGeometry>
        </mxCell>
        <mxCell id="SOsJHN9KbVqRuwe2kCM1-16" value="项目总管" style="fontStyle=1;whiteSpace=wrap;html=1;" vertex="1" parent="1">
          <mxGeometry x="780" y="1082" width="140" height="30" as="geometry" />
        </mxCell>
        <mxCell id="SOsJHN9KbVqRuwe2kCM1-19" value="" style="edgeStyle=orthogonalEdgeStyle;rounded=0;orthogonalLoop=1;jettySize=auto;html=1;" edge="1" parent="1" source="SOsJHN9KbVqRuwe2kCM1-18" target="SOsJHN9KbVqRuwe2kCM1-13">
          <mxGeometry relative="1" as="geometry">
            <Array as="points">
              <mxPoint x="850" y="1257" />
              <mxPoint x="850" y="1257" />
            </Array>
          </mxGeometry>
        </mxCell>
        <mxCell id="SOsJHN9KbVqRuwe2kCM1-22" style="edgeStyle=orthogonalEdgeStyle;rounded=0;orthogonalLoop=1;jettySize=auto;html=1;entryX=1;entryY=0.5;entryDx=0;entryDy=0;" edge="1" parent="1" source="SOsJHN9KbVqRuwe2kCM1-18" target="uLZXbfQ6GJuZrOZhjSxK-42">
          <mxGeometry relative="1" as="geometry" />
        </mxCell>
        <mxCell id="SOsJHN9KbVqRuwe2kCM1-18" value="销售总管" style="fontStyle=1;whiteSpace=wrap;html=1;" vertex="1" parent="1">
          <mxGeometry x="780" y="1297" width="140" height="30" as="geometry" />
        </mxCell>
        <mxCell id="SOsJHN9KbVqRuwe2kCM1-24" style="edgeStyle=orthogonalEdgeStyle;rounded=0;orthogonalLoop=1;jettySize=auto;html=1;entryX=1;entryY=0.5;entryDx=0;entryDy=0;" edge="1" parent="1" source="SOsJHN9KbVqRuwe2kCM1-23" target="uLZXbfQ6GJuZrOZhjSxK-9">
          <mxGeometry relative="1" as="geometry">
            <Array as="points">
              <mxPoint x="150" y="412" />
            </Array>
          </mxGeometry>
        </mxCell>
        <mxCell id="SOsJHN9KbVqRuwe2kCM1-25" style="edgeStyle=orthogonalEdgeStyle;rounded=0;orthogonalLoop=1;jettySize=auto;html=1;entryX=0;entryY=0.5;entryDx=0;entryDy=0;" edge="1" parent="1" source="SOsJHN9KbVqRuwe2kCM1-23" target="uLZXbfQ6GJuZrOZhjSxK-31">
          <mxGeometry relative="1" as="geometry">
            <Array as="points">
              <mxPoint x="150" y="717" />
            </Array>
          </mxGeometry>
        </mxCell>
        <mxCell id="SOsJHN9KbVqRuwe2kCM1-23" value="销售代表" style="fontStyle=1;whiteSpace=wrap;html=1;" vertex="1" parent="1">
          <mxGeometry x="80" y="650" width="140" height="30" as="geometry" />
        </mxCell>
        <mxCell id="SOsJHN9KbVqRuwe2kCM1-27" style="edgeStyle=orthogonalEdgeStyle;rounded=0;orthogonalLoop=1;jettySize=auto;html=1;entryX=1;entryY=0.25;entryDx=0;entryDy=0;" edge="1" parent="1" source="SOsJHN9KbVqRuwe2kCM1-26" target="uLZXbfQ6GJuZrOZhjSxK-9">
          <mxGeometry relative="1" as="geometry">
            <Array as="points">
              <mxPoint x="320" y="427" />
            </Array>
          </mxGeometry>
        </mxCell>
        <mxCell id="SOsJHN9KbVqRuwe2kCM1-28" style="edgeStyle=orthogonalEdgeStyle;rounded=0;orthogonalLoop=1;jettySize=auto;html=1;entryX=0;entryY=0.25;entryDx=0;entryDy=0;" edge="1" parent="1" source="SOsJHN9KbVqRuwe2kCM1-26" target="uLZXbfQ6GJuZrOZhjSxK-31">
          <mxGeometry relative="1" as="geometry" />
        </mxCell>
        <mxCell id="SOsJHN9KbVqRuwe2kCM1-29" style="edgeStyle=orthogonalEdgeStyle;rounded=0;orthogonalLoop=1;jettySize=auto;html=1;" edge="1" parent="1" source="SOsJHN9KbVqRuwe2kCM1-26">
          <mxGeometry relative="1" as="geometry">
            <mxPoint x="740" y="1150" as="targetPoint" />
            <Array as="points">
              <mxPoint x="370" y="1150" />
              <mxPoint x="740" y="1150" />
            </Array>
          </mxGeometry>
        </mxCell>
        <mxCell id="SOsJHN9KbVqRuwe2kCM1-30" style="edgeStyle=orthogonalEdgeStyle;rounded=0;orthogonalLoop=1;jettySize=auto;html=1;entryX=0;entryY=0.5;entryDx=0;entryDy=0;" edge="1" parent="1" source="SOsJHN9KbVqRuwe2kCM1-26" target="uLZXbfQ6GJuZrOZhjSxK-42">
          <mxGeometry relative="1" as="geometry">
            <Array as="points">
              <mxPoint x="350" y="1362" />
            </Array>
          </mxGeometry>
        </mxCell>
        <mxCell id="SOsJHN9KbVqRuwe2kCM1-31" style="edgeStyle=orthogonalEdgeStyle;rounded=0;orthogonalLoop=1;jettySize=auto;html=1;entryX=0.5;entryY=0;entryDx=0;entryDy=0;" edge="1" parent="1" source="SOsJHN9KbVqRuwe2kCM1-26" target="SOsJHN9KbVqRuwe2kCM1-1">
          <mxGeometry relative="1" as="geometry">
            <Array as="points">
              <mxPoint x="320" y="1580" />
              <mxPoint x="780" y="1580" />
            </Array>
          </mxGeometry>
        </mxCell>
        <mxCell id="SOsJHN9KbVqRuwe2kCM1-26" value="涉及的客户" style="fontStyle=1;whiteSpace=wrap;html=1;" vertex="1" parent="1">
          <mxGeometry x="250" y="590" width="140" height="30" as="geometry" />
        </mxCell>
        <mxCell id="SOsJHN9KbVqRuwe2kCM1-32" value="" style="ellipse;html=1;shape=endState;fillColor=strokeColor;" vertex="1" parent="1">
          <mxGeometry x="580" y="1892" width="30" height="30" as="geometry" />
        </mxCell>
      </root>
    </mxGraphModel>
  </diagram>
</mxfile>
